<svg t="1711588750034" class="icon" viewBox="0 0 1024 1024" version="1.1"
  xmlns="http://www.w3.org/2000/svg" p-id="1299" width="20" height="20">
  <path d="M464.512 144v406.784l-45.44-46.08a47.104 47.104 0 0 0-67.04 0 48.32 48.32 0 0 0 0 67.904l126.4 128a46.976 46.976 0 0 0 67.008 0l126.4-128 0.384-0.448a48.32 48.32 0 0 0-0.416-67.424 47.104 47.104 0 0 0-67.04 0l-45.44 46.048V144c0-26.496-21.248-48-47.424-48a47.68 47.68 0 0 0-47.36 48z m-257.92 282.72H269.76a47.68 47.68 0 0 0 47.392-48c0-26.496-21.216-48-47.36-48H206.56q-45.824 0-78.208 32.8Q96 396.352 96 442.72v373.344q0 46.4 32.384 79.2 32.384 32.8 78.176 32.8h610.88q45.792 0 78.176-32.8T928 816.064V442.72q0-46.4-32.384-79.2-32.384-32.8-78.208-32.8H754.24a47.68 47.68 0 0 0-47.392 48c0 26.528 21.216 48 47.36 48h63.2q6.56 0 11.2 4.704 4.608 4.672 4.608 11.296v373.344q0 6.624-4.64 11.328-4.608 4.672-11.136 4.672H206.56q-6.528 0-11.136-4.672-4.64-4.704-4.64-11.328V442.72q0-6.624 4.64-11.296 4.608-4.704 11.168-4.704z" fill="currentColor" p-id="1300"></path>
</svg>