<svg t="1711589048566" class="icon" viewBox="0 0 1024 1024" version="1.1"
  xmlns="http://www.w3.org/2000/svg" p-id="1710" width="20" height="20">
  <path d="M157.866667 533.333333a29.866667 29.866667 0 1 0-59.733334 0V711.509333c0 79.701333 59.605333 147.456 139.733334 155.178667 80.554667 7.765333 189.866667 16.512 274.133333 16.512 84.266667 0 193.578667-8.746667 274.133333-16.512 80.128-7.722667 139.733333-75.477333 139.733334-155.178667V533.333333a29.866667 29.866667 0 0 0-59.733334 0V711.509333a95.402667 95.402667 0 0 1-85.76 95.701334c-80.298667 7.765333-187.178667 16.256-268.373333 16.256-81.194667 0-188.074667-8.533333-268.373333-16.213334a95.402667 95.402667 0 0 1-85.76-95.744V533.333333z m506.709333-173.866666l-122.752-122.752v431.701333a29.866667 29.866667 0 1 1-59.733333 0V236.714667L359.466667 359.424a25.6 25.6 0 0 1-36.181334-36.224l170.666667-170.666667a25.6 25.6 0 0 1 37.034667 0.896l169.813333 169.813334a25.6 25.6 0 0 1-36.181333 36.224z" fill="currentColor" p-id="1711"></path>
</svg>