<svg t="1711588674359" viewBox="0 0 1026 1024" version="1.1"
  xmlns="http://www.w3.org/2000/svg" p-id="1285" fill="currentColor">
  <path d="M335.10336 614.759954L103.832894 846.03042v-120.792267c0-28.657879-23.258568-51.916447-51.916447-51.916447s-51.916447 23.258568-51.916447 51.916447v244.491854c0 4.014872 0.484554 7.822078 1.315217 11.560063 4.360982 24.227675 25.542892 42.640708 51.016562 42.640708h244.491854c28.657879 0 51.916447-23.258568 51.916447-51.916447s-23.258568-51.916447-51.916447-51.916447H176.51592l231.962685-231.962685A51.930291 51.930291 0 1 0 335.034138 614.690732zM176.585142 103.832894h120.307713c28.657879 0 51.916447-23.258568 51.916447-51.916447S325.550733 0 296.892855 0H52.401C26.858109 0 5.74542 18.413033 1.315217 42.640708 0.484554 46.378693 0 50.255121 0 54.200771v244.491854c0 28.657879 23.258568 51.916447 51.916447 51.916447s51.916447-23.258568 51.916447-51.916447V177.900358l231.270466 231.270466c10.106402 10.106402 23.397012 15.228824 36.687622 15.228824s26.581221-5.053201 36.687623-15.228824a51.930291 51.930291 0 0 0 0-73.444467L176.585142 103.832894zM974.921652 673.321706c-28.657879 0-51.916447 23.258568-51.916447 51.916447v120.792267L691.734739 614.759954a51.930291 51.930291 0 1 0-73.444467 73.444467l231.962685 231.962685h-120.307713c-28.657879 0-51.916447 23.258568-51.916447 51.916447s23.258568 51.916447 51.916447 51.916447h244.491855c25.47367 0 46.65558-18.413033 51.016562-42.640708 0.830663-3.737984 1.315217-7.614412 1.315216-11.560063v-244.491854c0-28.657879-23.258568-51.916447-51.916447-51.916447zM1025.453661 42.640708c-4.360982-24.227675-25.542892-42.640708-51.016562-42.640708h-244.491855c-28.657879 0-51.916447 23.258568-51.916447 51.916447s23.258568 51.916447 51.916447 51.916447h120.307713L618.290272 335.795579a51.930291 51.930291 0 0 0 0 73.444467c10.106402 10.106402 23.397012 15.228824 36.687623 15.228824s26.581221-5.053201 36.687622-15.228824l231.270466-231.270466v120.792267c0 28.657879 23.258568 51.916447 51.916447 51.916447s51.916447-23.258568 51.916447-51.916447V54.200771c0-4.014872-0.484554-7.822078-1.315216-11.560063z" p-id="1286"></path>
</svg>