<svg t="1711519807444" class="icon" viewBox="0 0 1024 1024" version="1.1"
  xmlns="http://www.w3.org/2000/svg" p-id="969" width="20" height="20">
  <path d="M725.504 389.504H896l41.184-72.64a48 48 0 0 1 6.816 24.064v0.576-192a48 48 0 0 0-96 0v54.56Q717.056 80 512 80q-88.32 0-168.768 33.984-77.6 32.8-137.28 92.64-59.584 59.744-92.224 137.344Q80 424.128 80 511.968V512a48 48 0 0 0 96 0q0-68.48 26.24-130.816 25.344-60.32 71.68-106.784 46.4-46.528 106.688-72Q443.104 176 512 176q179.968 0 288.832 117.504h-75.328a48 48 0 0 0 0 96zM264.352 730.496Q366.72 848 512 848q68.352 0 130.72-26.4 60.288-25.504 106.816-72.064 46.56-46.528 72.064-106.816 26.4-62.4 26.4-130.72a48 48 0 0 1 96 0q0 87.808-33.984 168.128-32.8 77.536-92.576 137.28-59.776 59.808-137.28 92.608Q599.808 944 512 944q-171.2 0-293.376-121.44v51.936a48 48 0 0 1-96 0v-192a48 48 0 0 1 47.84-48h173.728a48 48 0 0 1 0 96H264.352z" fill="currentColor" p-id="970"></path>
</svg>