<svg t="1711704487476" class="icon" viewBox="0 0 1024 1024" version="1.1"
  xmlns="http://www.w3.org/2000/svg" p-id="1504" fill="currentColor">
  <path d="M554.666667 103.366358l289.88694 167.366357a85.333333 85.333333 0 0 1 42.666667 73.900927v334.732716a85.333333 85.333333 0 0 1-42.666667 73.900927L554.666667 920.633642a85.333333 85.333333 0 0 1-85.333334 0l-289.88694-167.366357a85.333333 85.333333 0 0 1-42.666667-73.900927V344.633642a85.333333 85.333333 0 0 1 42.666667-73.900927L469.333333 103.366358a85.333333 85.333333 0 0 1 85.333334 0zM512 177.267285L222.11306 344.633642v334.732716L512 846.732715l289.88694-167.366357V344.633642L512 177.267285zM512 341.333333c94.2566 0 170.666667 76.410066 170.666667 170.666667s-76.410066 170.666667-170.666667 170.666667-170.666667-76.410066-170.666667-170.666667 76.410066-170.666667 170.666667-170.666667z m0 85.333334c-47.127735 0-85.333333 38.205598-85.333333 85.333333s38.205598 85.333333 85.333333 85.333333 85.333333-38.205598 85.333333-85.333333-38.205598-85.333333-85.333333-85.333333z" p-id="1505"></path>
</svg>