<svg t="1712469415860" class="icon" viewBox="0 0 1024 1024" version="1.1"
  xmlns="http://www.w3.org/2000/svg" p-id="2303" width="20" height="20">
  <path d="M511.990961 8.568811C235.366611 8.568811 10.322344 233.613078 10.322344 510.232909c0 276.62435 225.044267 501.664098 501.668617 501.664098 276.619831 0 501.664098-225.044267 501.664098-501.664098 0-134.000653-52.181165-259.979345-146.935219-354.733399-94.754054-94.749534-220.723707-146.930699-354.728879-146.930699z" fill="#4E6070" p-id="2304"></path>
  <path d="M866.71984 155.49951c-94.758573-94.749534-220.728226-146.930699-354.728879-146.930699a499.404391 499.404391 0 0 0-165.812815 28.19663c-16.735394 19.067412-19.112606 45.090203-4.804138 59.394151 15.072249 15.067729 27.401213 42.975117 27.401213 62.010892 0 19.026737 7.542904 55.54361 16.76251 81.150615l14.380778 39.951628c9.219606 25.607005-3.827944 55.028396-28.992047 65.386896l-89.461818 36.833232c-25.164102 10.358499-66.069327 9.7303-90.889954-1.405538L126.557177 351.384512c-24.829666-11.135838-64.284158-8.876131-87.67665 5.02559l-5.454934 3.24494a499.883449 499.883449 0 0 0-23.09873 150.577867c0 27.374096 2.23711 54.232979 6.480841 80.432028 56.090459 46.554493 197.629496 167.588945 197.629496 203.513774 0 27.247553 17.883325 98.785372 28.644052 139.378757 77.770092 49.577982 170.042987 78.339539 268.914229 78.339539 128.740054 0 246.294556-48.764487 335.205006-128.767171-17.255126-25.362957-63.326042-97.723309-63.326042-147.504665 0-69.174165-113.355966-85.932156-113.355966-85.932156-26.931194-3.977085-64.699944-22.972186-83.934574-42.211335l-33.800705-33.800705c-19.252708-19.243669-37.393639-57.120886-40.3177-84.174103l-0.00452-0.08135c-2.919542-27.053218 16.947806-49.184793 44.159204-49.184793h116.600905c27.211397 0 65.228716-15.741122 84.472385-34.984791l1.880077-1.880076c19.243669-19.239149 56.533362-29.394275 82.863473-22.565439l47.919357 12.428391c26.348189 6.828836 69.309748 6.295545 95.468121-1.179567l13.006876-3.719479c-21.720308-87.378369-66.796953-167.530193-132.111538-232.840258z" fill="#00CCC6" p-id="2305"></path>
</svg>